<?xml version="1.0" encoding="UTF-8"?>
<svg width="218px" height="47px" viewBox="0 0 218 47" version="1.1" xmlns="http://www.w3.org/2000/svg" xmlns:xlink="http://www.w3.org/1999/xlink">
    <title>Combined Shape Copy</title>
    <g id="Page-1" stroke="none" stroke-width="1" fill="none" fill-rule="evenodd">
        <g id="website-schets" transform="translate(-92, -81)" fill="#14B8DC">
            <path d="M280.026964,81 L310,81.0839379 L306.808217,92.9176136 L306.772593,92.917913 C306.147248,92.9231611 297.395592,92.9963085 288.971741,93.0505049 L288.019953,93.0565547 C283.747293,93.0833726 279.642501,93.1044217 276.823293,93.1082196 L275.146543,93.1080698 C274.334453,93.1064267 273.732784,93.1020672 273.398322,93.0944079 C273.378821,93.0944079 273.358793,93.0938832 273.339293,93.0938832 C272.13236,93.0938832 271.017134,93.9290657 270.672973,95.0989508 C270.460047,95.8218663 270.567564,96.578357 270.967064,97.1743163 C271.367091,97.7702757 272.019046,98.145898 272.756908,98.2051791 L289.205449,99.5230048 C294.117506,99.9138408 297.827901,101.005034 300.232806,102.764583 C302.766311,104.621185 303.926336,107.309823 303.68126,110.757573 C303.601676,111.882866 303.327086,113.214332 302.865922,114.715247 C301.933053,117.78213 300.463125,120.318629 298.496721,122.250251 C296.525573,124.188693 293.767548,125.652885 290.299066,126.604532 C286.920709,127.530472 282.534116,128 277.260506,128 C274.810064,128 272.023115,127.982672 269.149055,127.955293 L268.325741,127.947203 C268.188198,127.945811 268.050512,127.944398 267.91271,127.942965 L267.084708,127.934125 L265.840279,127.920029 L265.010928,127.910129 C255.757053,127.797504 246.825358,127.617851 246.315353,127.607531 L246.292409,127.607066 L249.465746,115.779161 L249.500713,115.779031 L249.520215,115.778959 L249.772761,115.778054 C249.858832,115.77775 249.962289,115.777389 250.082222,115.776979 L250.34379,115.776093 C252.183285,115.76993 256.705166,115.756107 261.915255,115.749929 L262.721968,115.74904 C263.12777,115.748629 263.53704,115.748267 263.948869,115.747961 L265.39928,115.747137 C265.561278,115.747073 265.723502,115.74702 265.8859,115.746977 L267.839592,115.746974 L268.083954,115.747051 L269.303462,115.747712 C275.954151,115.752635 282.268396,115.779586 284.566928,115.856803 C285.840268,115.90192 287.046673,115.026867 287.415077,113.779864 C287.63749,113.025996 287.52523,112.238029 287.107283,111.617413 C286.689337,110.997321 286.008922,110.608059 285.239437,110.549827 L267.723104,109.225181 C258.434467,108.551579 253.962492,104.835752 254.435251,98.1794732 C254.524322,96.9256502 254.775195,95.6345798 255.180492,94.3419355 C256.114416,91.1989843 257.624399,88.6047773 259.663535,86.6458757 C261.697928,84.6916955 264.432236,83.2400938 267.790038,82.3319902 C271.058243,81.4480188 275.17499,81 280.026964,81 Z M256.713771,81.0835707 L247.888933,103.172889 L251.426458,103.172889 L233.275563,127.607223 L221.478193,127.607223 L231.512071,103.172889 L227.960316,103.172889 L244.919036,81.0835707 L256.713771,81.0835707 Z M230.155405,81.0835707 L226.949392,92.917771 L192.630872,92.917771 L191.1562,98.6286985 L222.937,98.6286985 L220.223246,108.867029 L188.374458,108.867029 L186.599898,115.779318 L222.319831,115.779318 L219.179698,127.607223 L166.62701,127.607223 L178.938776,81.0835707 L230.155405,81.0835707 Z M130.009415,81.0835707 L133.492127,106.541423 L150.507767,81.0835707 L175.083338,81.0835707 L162.774207,127.607223 L145.941451,127.607223 L153.513503,99.0289776 L133.721391,127.607223 L122.172259,127.607223 L117.458898,99.0289776 L117.126332,100.284374 L109.887372,127.607223 L92,127.607223 L105.365855,81.0835707 L130.009415,81.0835707 Z" id="Combined-Shape-Copy"></path>
        </g>
    </g>
</svg>