<?xml version="1.0" encoding="UTF-8"?>
<svg width="688px" height="194px" viewBox="0 0 688 194" version="1.1" xmlns="http://www.w3.org/2000/svg" xmlns:xlink="http://www.w3.org/1999/xlink">
    <title>Group</title>
    <g id="Page-1" stroke="none" stroke-width="1" fill="none" fill-rule="evenodd">
        <g id="Group" fill="#E2E3E8">
            <path d="M593.433871,0 L688,0.264315214 L677.929796,37.5278044 C677.929796,37.5278044 609.395522,38.1042883 582.354729,38.1291141 L579.651485,38.1296316 C576.26681,38.1274405 573.786531,38.1134609 572.52024,38.0845184 L572.334001,38.0828664 C568.52608,38.0828664 565.007495,40.7128028 563.921656,44.3966961 C563.249866,46.6731108 563.589086,49.0552517 564.849525,50.9318897 C566.111626,52.8085277 568.168568,53.9913383 570.496554,54.1780109 L622.392358,58.3277598 C637.890095,59.5584775 649.59654,62.9945753 657.184113,68.535283 C665.17742,74.3816051 668.837347,82.8479518 668.064123,93.7046992 C667.813033,97.248175 666.94669,101.440875 665.491698,106.167162 C662.548458,115.824579 657.910777,123.811854 651.706694,129.894408 C645.487644,135.998437 636.785964,140.609086 625.842766,143.60576 C615.183914,146.521487 601.344036,148 584.705585,148 C574.765416,148 563.070201,147.909799 551.292304,147.778105 L548.674312,147.748177 L546.816121,147.726164 C546.506561,147.722445 546.19709,147.718701 545.887739,147.714935 L544.033311,147.692058 C514.701986,147.325596 487,146.762674 487,146.762674 L497.012004,109.517357 L497.081905,109.517098 C497.097363,109.517041 497.11536,109.516974 497.135871,109.516899 L497.288899,109.516341 C497.319365,109.51623 497.352293,109.516111 497.387661,109.515983 L497.628926,109.515118 C501.50072,109.501299 523.03654,109.42785 546.287233,109.416944 L548.726028,109.416036 C548.997551,109.415962 549.26923,109.415896 549.54104,109.41584 L554.828003,109.415963 C555.05934,109.416023 555.290654,109.416091 555.521931,109.416167 L556.909022,109.416715 C557.140087,109.416822 557.371085,109.416936 557.601999,109.417059 L558.986358,109.417893 C580.194062,109.432187 600.434927,109.516323 607.757638,109.761848 C611.775077,109.903918 615.581335,107.148432 616.743665,103.221699 C617.445387,100.847818 617.0912,98.3665588 615.772562,96.4122782 C614.453924,94.4596495 612.307188,93.2338877 609.879431,93.050519 L554.614699,88.8792946 C525.308677,86.758165 511.199418,75.0572609 512.690992,54.0970644 C512.972013,50.1488559 513.763528,46.0833575 515.042258,42.0129032 C517.988823,32.1159504 522.752881,23.9469584 529.186437,17.7785021 C535.605028,11.6249135 544.23188,7.05391227 554.825881,4.19435205 C565.137197,1.41078245 578.125698,0 593.433871,0 Z M520,0 L492.199776,69.7952459 L503.343774,69.7952459 L446.164371,147 L409,147 L440.608975,69.7952459 L429.420148,69.7952459 L482.843931,0 L520,0 Z M436,0 L425.906834,37.3923231 L317.865319,37.3923231 L313.222761,55.4370447 L413.275028,55.4370447 L404.731593,87.7869241 L304.465285,87.7869241 L298.878618,109.627568 L411.332056,109.627568 L401.446294,147 L236,147 L274.759883,0 L436,0 Z M119.861177,0 L130.843771,80.4387474 L184.501916,0 L262,0 L223.183646,147 L170.10222,147 L193.980386,56.7017997 L131.566747,147 L95.1470185,147 L80.2836209,56.7017997 L79.2348896,60.6684558 L56.4071175,147 L0,147 L42.1486932,0 L119.861177,0 Z" id="Combined-Shape"></path>
            <path d="M5.44249939,166.204945 L12.9467382,166.204945 L9.11751077,183.882759 L24.4207628,183.882759 L23.268407,189.163145 L0.458740744,189.163145 L5.44249939,166.204945 Z M32.9183033,166.204945 L57.5879853,166.204945 L56.4345447,171.485331 L39.3028182,171.485331 L38.5477929,174.961859 L54.5047697,174.961859 L53.4725807,179.651891 L37.5156039,179.651891 L36.5933147,183.882759 L54.4103072,183.882759 L53.255776,189.163145 L27.9345447,189.163145 L32.9183033,166.204945 Z M69.3577247,171.485441 L59.8944869,171.485441 L61.0468427,166.205055 L87.4786448,166.205055 L86.3262891,171.485441 L76.8619635,171.485441 L73.0327361,189.163254 L65.5274096,189.163254 L69.3577247,171.485441 Z M89.9823255,171.124559 C90.7488689,171.058965 91.3646427,170.874206 91.82887,170.567003 C92.2940814,170.260894 92.6156285,169.726296 92.7970857,168.959929 L92.8463583,168.795942 L90.3989692,168.795942 L91.44049,164.007518 L97.8363335,164.007518 L96.9724961,167.943209 C96.7072465,169.145781 96.3365578,170.129704 95.8615176,170.894977 C95.3864774,171.660251 94.8296131,172.256071 94.1909247,172.682437 C93.5511485,173.108804 92.8270069,173.403981 92.0184998,173.567968 C91.2078173,173.731955 90.3363844,173.813949 89.3998502,173.813949 L89.9823255,171.124559 Z M106.372082,189.261537 C104.728086,188.933563 103.337803,188.453627 102.201647,187.817357 C101.065181,187.184367 100.165281,186.408161 99.5018453,185.489833 C98.8384094,184.571505 98.387558,183.521987 98.1525542,182.34128 L106.13656,181.422952 C106.309461,182.581794 106.95037,183.450926 108.059285,184.030347 C109.167113,184.609768 110.897406,184.899479 113.246899,184.899479 C114.072485,184.899479 114.871658,184.856842 115.641467,184.768289 C116.411172,184.68083 117.09262,184.537614 117.688764,184.341923 C118.283923,184.145138 118.771093,183.882759 119.150272,183.554785 C119.528363,183.22681 119.741852,182.822309 119.787474,182.34128 C119.841391,181.772791 119.603939,181.351891 119.075119,181.078579 C118.5463,180.805267 117.835616,180.603016 116.946331,180.471826 C116.055959,180.340637 115.035832,180.258643 113.88595,180.225846 C112.736069,180.193048 111.561586,180.13292 110.362503,180.04546 C109.163419,179.958 107.990705,179.810412 106.847624,179.602695 C105.703455,179.394977 104.700649,179.061537 103.842471,178.602373 C102.983204,178.143209 102.313528,177.520058 101.833441,176.73292 C101.353353,175.945781 101.171374,174.939994 101.287503,173.715556 C101.411927,172.403659 101.853592,171.244817 102.612498,170.239029 C103.371404,169.233241 104.396998,168.385974 105.692541,167.697228 C106.985909,167.008482 108.531875,166.48919 110.327175,166.13935 C112.122474,165.789511 114.12852,165.614592 116.348573,165.614592 C118.328239,165.614592 120.049169,165.76218 121.511361,166.057357 C122.973554,166.352534 124.214511,166.789833 125.237496,167.369254 C126.259393,167.948675 127.07202,168.670219 127.675377,169.533884 C128.278733,170.39755 128.710371,171.408804 128.969204,172.567646 L121.034471,173.321987 C120.807691,172.272469 120.172211,171.518129 119.128031,171.058965 C118.083955,170.598707 116.648069,170.370219 114.820685,170.370219 C113.123829,170.370219 111.740066,170.567003 110.669397,170.960572 C109.59764,171.354141 109.029176,171.911698 108.960743,172.633241 C108.913047,173.136135 109.155165,173.507839 109.686008,173.748354 C110.219026,173.988868 110.931214,174.163788 111.82366,174.273113 C112.715018,174.382437 113.742708,174.453498 114.903467,174.486296 C116.063138,174.519093 117.24311,174.590154 118.440224,174.698386 C119.63713,174.808804 120.806683,174.978257 121.948778,175.207839 C123.089786,175.437421 124.088393,175.803659 124.943512,176.306553 C125.799718,176.809447 126.464678,177.470862 126.942742,178.290797 C127.419719,179.110733 127.597032,180.165717 127.474682,181.455749 C127.339889,182.876971 126.875169,184.106875 126.08052,185.14546 C125.284784,186.184045 124.219565,187.047711 122.8816,187.736457 C121.543635,188.425203 119.961724,188.933563 118.135866,189.261537 C116.310008,189.589511 114.30935,189.753498 112.133893,189.753498 C109.935594,189.753498 108.016078,189.589511 106.372082,189.261537 Z M148.071679,189.294772 C146.414223,188.879338 145.007587,188.227762 143.851459,187.343325 C142.694347,186.457794 141.833635,185.337215 141.266164,183.980495 C140.697398,182.625961 140.503869,181.007955 140.68221,179.127569 C140.872993,177.115994 141.456122,175.268405 142.431595,173.584804 C143.407069,171.901203 144.701279,170.458116 146.316399,169.255543 C147.93152,168.052971 149.825801,167.118244 152.000435,166.45027 C154.172685,165.784482 156.553907,165.449949 159.142701,165.449949 C161.274649,165.449949 163.161838,165.679531 164.805253,166.139788 C166.447683,166.598952 167.808893,167.259273 168.891938,168.122939 C169.972807,168.986605 170.759248,170.041588 171.251158,171.288984 C171.740995,172.535286 171.890049,173.945576 171.697335,175.518759 L163.85778,175.946219 C163.903473,175.24654 163.800919,174.596058 163.55447,173.994772 C163.306934,173.393486 162.925445,172.874193 162.413266,172.436894 C161.900103,171.998502 161.253348,171.649756 160.473314,171.387376 C159.692192,171.124997 158.781257,170.992714 157.737037,170.992714 C156.475272,170.992714 155.309004,171.178566 154.241496,171.55027 C153.171709,171.923068 152.23596,172.44236 151.433055,173.109241 C150.631239,173.776122 149.978482,174.568727 149.479136,175.487055 C148.978703,176.405383 148.675555,177.41117 148.571868,178.504418 C148.480728,179.465383 148.564514,180.313743 148.820275,181.046219 C149.077123,181.778695 149.477096,182.38982 150.016723,182.881781 C150.557334,183.374836 151.224856,183.745447 152.016701,183.997987 C152.808753,184.248341 153.704979,184.375158 154.705689,184.375158 C155.770575,184.375158 156.773369,184.238502 157.71407,183.96519 C158.653684,183.691878 159.504734,183.320174 160.267323,182.848984 C161.028722,182.378887 161.686275,181.822424 162.236928,181.177408 C162.786493,180.532392 163.207038,179.837087 163.494986,179.094772 L171.098253,179.782424 C170.59771,181.378566 169.799869,182.806347 168.700586,184.063582 C167.603478,185.320817 166.28304,186.386733 164.743726,187.260238 C163.202029,188.135929 161.481601,188.797344 159.579073,189.245576 C157.67665,189.692714 155.659309,189.917923 153.527361,189.917923 C151.547695,189.917923 149.728047,189.710206 148.071679,189.294772 Z M183.313383,181.045781 C183.570231,181.778257 183.974451,182.390476 184.527131,182.882437 C185.077635,183.374399 185.765721,183.746103 186.590301,183.99755 C187.414881,184.248997 188.337316,184.37472 189.360869,184.37472 C190.687897,184.37472 191.907983,184.183402 193.021124,183.800765 C194.134266,183.418129 195.103684,182.887904 195.92938,182.21009 C196.755076,181.532277 197.41814,180.734206 197.919661,179.815878 C198.41792,178.89755 198.720031,177.902695 198.821643,176.831312 C198.912888,175.869254 198.829567,175.027453 198.572769,174.30591 C198.313796,173.584367 197.903619,172.977614 197.342238,172.485653 C196.778681,171.993691 196.085157,171.621987 195.260576,171.37054 C194.437084,171.119093 193.512474,170.99337 192.490009,170.99337 C191.16298,170.99337 189.947142,171.185781 188.846069,171.567325 C187.743805,171.949961 186.780344,172.47472 185.955685,173.141601 C185.131026,173.808482 184.46848,174.601087 183.968046,175.519415 C183.467613,176.437743 183.166486,177.433691 183.064976,178.503981 C182.973732,179.466039 183.056534,180.313305 183.313383,181.045781 Z M182.645279,189.294334 C180.975858,188.8789 179.559329,188.228418 178.393515,187.342887 C177.225526,186.457357 176.353367,185.331312 175.775952,183.964752 C175.198537,182.598193 175.000037,180.963788 175.180451,179.061537 C175.371235,177.049961 175.948406,175.207839 176.911966,173.53517 C177.874438,171.862502 179.159427,170.424881 180.76367,169.222309 C182.367913,168.019736 184.261676,167.090476 186.444959,166.434527 C188.628241,165.778579 191.036034,165.450605 193.668337,165.450605 C195.691512,165.450605 197.542705,165.658322 199.223002,166.073756 C200.901125,166.48919 202.318742,167.139672 203.475854,168.025203 C204.630791,168.910733 205.49751,170.036778 206.074926,171.403338 C206.652341,172.769897 206.850841,174.404302 206.670426,176.306553 C206.479643,178.318129 205.902471,180.160251 204.938912,181.83292 C203.975352,183.505588 202.687618,184.937743 201.072447,186.129383 C199.458363,187.321023 197.559161,188.250283 195.37593,188.917164 C193.190523,189.584045 190.782212,189.917486 188.149909,189.917486 C186.148488,189.917486 184.313612,189.709768 182.645279,189.294334 Z M213.95919,166.204836 L221.202374,166.204836 L231.602573,179.389402 L234.451994,166.204836 L241.956233,166.204836 L236.972474,189.163035 L229.72929,189.163035 L219.361723,175.978469 L216.47967,189.163035 L208.975431,189.163035 L213.95919,166.204836 Z M247.928406,166.204836 L255.17159,166.204836 L265.571789,179.389402 L268.421211,166.204836 L275.92545,166.204836 L270.941691,189.163035 L263.698507,189.163035 L253.33094,175.978469 L250.448886,189.163035 L242.944648,189.163035 L247.928406,166.204836 Z M281.897623,166.204836 L306.567305,166.204836 L305.413864,171.485222 L288.282138,171.485222 L287.527112,174.961749 L303.484089,174.961749 L302.4519,179.651781 L286.494923,179.651781 L285.572634,183.88265 L303.389627,183.88265 L302.235096,189.163035 L276.913864,189.163035 L281.897623,166.204836 Z M315.406642,189.294662 C313.749187,188.879228 312.342551,188.227653 311.186423,187.343215 C310.029311,186.457685 309.168599,185.337106 308.601128,183.980386 C308.032361,182.625852 307.838832,181.007846 308.017173,179.12746 C308.207957,177.115884 308.791085,175.268296 309.766559,173.584695 C310.742033,171.901093 312.036242,170.458006 313.651363,169.255434 C315.266483,168.052862 317.160765,167.118135 319.335398,166.450161 C321.507649,165.784373 323.88887,165.449839 326.477664,165.449839 C328.609612,165.449839 330.496801,165.679421 332.140216,166.139678 C333.782647,166.598842 335.143857,167.259164 336.226902,168.12283 C337.307771,168.986495 338.094212,170.041479 338.586121,171.288875 C339.075959,172.535177 339.225012,173.945466 339.032298,175.51865 L331.192744,175.946109 C331.238436,175.246431 331.135883,174.595949 330.889434,173.994662 C330.641898,173.393376 330.260408,172.874084 329.748229,172.436785 C329.235066,171.998392 328.588312,171.649646 327.808278,171.387267 C327.027155,171.124887 326.11622,170.992605 325.072001,170.992605 C323.810236,170.992605 322.643968,171.178457 321.57646,171.550161 C320.506673,171.922958 319.570923,172.442251 318.768019,173.109132 C317.966202,173.776013 317.313446,174.568617 316.8141,175.486945 C316.313666,176.405273 316.010519,177.411061 315.906832,178.504309 C315.815691,179.465273 315.899478,180.313633 316.155238,181.046109 C316.412087,181.778585 316.81206,182.389711 317.351686,182.881672 C317.892297,183.374727 318.55982,183.745338 319.351665,183.997878 C320.143717,184.248232 321.039942,184.375048 322.040653,184.375048 C323.105539,184.375048 324.108333,184.238392 325.049034,183.96508 C325.988647,183.691768 326.839697,183.320064 327.602287,182.848875 C328.363685,182.378778 329.021239,181.822315 329.571892,181.177299 C330.121457,180.532283 330.542001,179.836977 330.82995,179.094662 L338.433217,179.782315 C337.932674,181.378457 337.134832,182.806238 336.035549,184.063473 C334.938442,185.320707 333.618004,186.386624 332.07869,187.260129 C330.536993,188.13582 328.816564,188.797235 326.914037,189.245466 C325.011613,189.692605 322.994272,189.917814 320.862324,189.917814 C318.882658,189.917814 317.06301,189.710096 315.406642,189.294662 Z M352.013118,171.485331 L342.54988,171.485331 L343.702236,166.204945 L370.134038,166.204945 L368.981682,171.485331 L359.517357,171.485331 L355.688129,189.163145 L348.182803,189.163145 L352.013118,171.485331 Z M425.054003,166.204836 L432.558242,166.204836 L428.729015,183.88265 L444.032267,183.88265 L442.879911,189.163035 L420.070245,189.163035 L425.054003,166.204836 Z M452.529709,166.204727 L460.033948,166.204727 L455.050189,189.162926 L447.54595,189.162926 L452.529709,166.204727 Z M472.390952,171.485222 L462.927714,171.485222 L464.08007,166.204836 L490.511872,166.204836 L489.359516,171.485222 L479.895191,171.485222 L476.065963,189.163035 L468.560637,189.163035 L472.390952,171.485222 Z M496.816002,166.231402 L521.485684,166.231402 L520.332243,171.511788 L503.200517,171.511788 L502.445492,174.988315 L518.402469,174.988315 L517.370279,179.678347 L501.413303,179.678347 L500.491013,183.909215 L518.308006,183.909215 L517.153475,189.189601 L491.832243,189.189601 L496.816002,166.231402 Z M542.152919,175.742875 C543.130787,175.742875 543.884237,175.551556 544.408917,175.16892 C544.935773,174.786283 545.240132,174.157666 545.323081,173.283068 C545.435063,172.10236 544.686134,171.512006 543.075208,171.512006 L533.254108,171.512006 L532.297011,175.742875 L542.152919,175.742875 Z M526.869593,166.231621 L545.763437,166.231621 C547.219905,166.231621 548.440012,166.395608 549.420493,166.723582 C550.400975,167.051556 551.185137,167.499788 551.773083,168.067183 C552.360822,168.636765 552.764209,169.303646 552.986403,170.06892 C553.206421,170.834193 553.27555,171.665061 553.190527,172.561524 C552.987302,174.704289 552.230297,176.492842 550.919824,177.923904 C549.609248,179.356058 547.811825,180.301717 545.527556,180.760881 L549.394488,189.18982 L541.496491,189.18982 L537.801554,181.02326 L531.177287,181.02326 L529.390073,189.18982 L521.885834,189.18982 L526.869593,166.231621 Z M573.413547,181.252842 L571.229111,172.986797 L565.484007,181.252842 L573.413547,181.252842 Z M568.83394,166.231621 L577.089799,166.231621 L583.820877,189.18982 L575.533473,189.18982 L574.663669,185.974579 L562.229845,185.974579 L559.999623,189.18982 L551.972187,189.18982 L568.83394,166.231621 Z M592.296047,166.231402 L599.800286,166.231402 L595.971058,183.909215 L611.27431,183.909215 L610.121954,189.189601 L587.312288,189.189601 L592.296047,166.231402 Z M627.27696,166.231402 L623.447732,183.909215 L638.750984,183.909215 L637.598629,189.189601 L614.788962,189.189601 L619.772721,166.231402 L627.27696,166.231402 Z M648.977697,166.231293 L652.654444,176.3329 L660.726253,166.231293 L669.633661,166.231293 L655.003846,182.859588 L653.654055,189.189492 L646.148729,189.189492 L647.499607,182.859588 L640.168184,166.231293 L648.977697,166.231293 Z" id="Combined-Shape"></path>
            <polygon id="Stroke-1" points="405.028972 160 398.631008 176.142894 401.19585 176.142894 388.037709 194 379.484972 194 386.758551 176.142894 384.18392 176.142894 396.478411 160"></polygon>
        </g>
    </g>
</svg>